<svg width="26" height="28" viewBox="0 0 26 28" fill="none" xmlns="http://www.w3.org/2000/svg">
<path fill-rule="evenodd" clip-rule="evenodd" d="M15.9435 19.4C14.4118 20.3534 12.6035 20.9041 10.6665 20.9041C5.14366 20.9041 0.666504 16.4269 0.666504 10.9041C0.666504 5.38121 5.14366 0.904053 10.6665 0.904053C16.1894 0.904053 20.6665 5.38121 20.6665 10.9041C20.6665 13.525 19.6582 15.9104 18.0084 17.6936L25.6093 25.2946C26.13 25.8153 26.13 26.6595 25.6093 27.1802C25.0886 27.7009 24.2444 27.7009 23.7237 27.1802L15.9435 19.4ZM17.9998 10.9041C17.9998 14.9541 14.7166 18.2374 10.6665 18.2374C6.61642 18.2374 3.33317 14.9541 3.33317 10.9041C3.33317 6.85396 6.61642 3.57072 10.6665 3.57072C14.7166 3.57072 17.9998 6.85396 17.9998 10.9041Z" fill="#FBFFFE"/>
</svg>
